<svg width="24" height="24" viewBox="0 0 24 24" fill="none" xmlns="http://www.w3.org/2000/svg">
<path d="M20 18.0377C19.9989 18.9581 19.6327 19.8405 18.9819 20.4913C18.3311 21.1422 17.4487 21.5083 16.5283 21.5094H7.4717C6.5513 21.5083 5.66893 21.1422 5.01811 20.4913C4.36729 19.8405 4.00115 18.9581 4 18.0377C4.00145 16.3168 4.68575 14.6667 5.90265 13.4498C7.11955 12.2329 8.76961 11.5486 10.4906 11.5472H13.5094C15.2304 11.5486 16.8804 12.2329 18.0974 13.4498C19.3143 14.6667 19.9985 16.3168 20 18.0377Z" fill="#DE5B16"/>
<path d="M12 10.6415C14.2508 10.6415 16.0755 8.81689 16.0755 6.56607C16.0755 4.31525 14.2508 2.4906 12 2.4906C9.74918 2.4906 7.92453 4.31525 7.92453 6.56607C7.92453 8.81689 9.74918 10.6415 12 10.6415Z" fill="#DE5B16"/>
</svg>
