<svg width="24" height="24" viewBox="0 0 24 24" fill="none" xmlns="http://www.w3.org/2000/svg">
<path d="M20 18.0377C19.9989 18.9581 19.6327 19.8405 18.9819 20.4913C18.3311 21.1421 17.4487 21.5082 16.5283 21.5094H7.4717C6.5513 21.5082 5.66893 21.1421 5.01811 20.4913C4.36729 19.8405 4.00115 18.9581 4 18.0377C4.00145 16.3167 4.68575 14.6667 5.90265 13.4498C7.11955 12.2329 8.76961 11.5486 10.4906 11.5471H13.5094C15.2304 11.5486 16.8804 12.2329 18.0974 13.4498C19.3143 14.6667 19.9985 16.3167 20 18.0377Z" fill="white"/>
<path d="M12 10.6414C14.2508 10.6414 16.0754 8.81677 16.0754 6.56595C16.0754 4.31513 14.2508 2.49048 12 2.49048C9.74915 2.49048 7.9245 4.31513 7.9245 6.56595C7.9245 8.81677 9.74915 10.6414 12 10.6414Z" fill="white"/>
</svg>
