<svg width="140" height="140" viewBox="0 0 140 140" fill="none" xmlns="http://www.w3.org/2000/svg">
<path d="M78.92 82.62V21.56H133.14V5H7.57V21.56H60.08V82.62H4V100.89H60.08V135.28H78.92V100.89H136.14V82.62H78.92Z" fill="#6ACEBC"/>
<path d="M35.75 74.2101H51.66V57.5101H42.03C40.79 57.5101 40.04 54.8301 39.78 53.6501L33.07 26.6801H13.86L22.6 62.0901C24.69 70.1301 29.11 74.2001 35.75 74.2001V74.2101Z" fill="#6ACEBC"/>
<path d="M99.82 57.5099H88.47V74.2099H104.95C112.56 74.2099 117.42 69.9299 119.4 61.4599L126.78 26.6899H107.58L102.07 53.3399C101.18 56.6299 100.23 57.5099 99.81 57.5099H99.82Z" fill="#6ACEBC"/>
</svg>
