<svg width="140" height="140" viewBox="0 0 140 140" fill="none" xmlns="http://www.w3.org/2000/svg">
<path d="M91.04 78.77V62.36H132.71V45.8H91.04V27.54H119.79C124.87 27.54 128.9 25.93 131.8 22.71C134.59 19.3 136.24 13.7 136.84 5.59999L136.96 3.98999H117.05L116.77 5.12999C115.82 8.91999 114.39 10.84 112.52 10.84H4.14V27.54H70.35V45.8H7.71V62.36H70.35V78.77H3V96.18H70.35V119.22C70.35 119.38 70.35 119.86 68.57 119.86H11.7V136.56H72.42C87.81 136.56 91.04 128.6 91.04 121.93V96.18H137.42V78.77H91.04Z" fill="#7DB79A"/>
</svg>
