<svg width="24" height="24" viewBox="0 0 24 24" fill="none" xmlns="http://www.w3.org/2000/svg">
<g clip-path="url(#clip0_113_2343)">
<path d="M12 0C9.62663 0 7.30655 0.703788 5.33316 2.02236C3.35977 3.34094 1.8217 5.21509 0.913451 7.4078C0.00519945 9.60051 -0.232441 12.0133 0.230582 14.3411C0.693605 16.6689 1.83649 18.8071 3.51472 20.4853C5.19295 22.1635 7.33115 23.3064 9.65892 23.7694C11.9867 24.2324 14.3995 23.9948 16.5922 23.0866C18.7849 22.1783 20.6591 20.6402 21.9776 18.6668C23.2962 16.6935 24 14.3734 24 12C24 8.8174 22.7357 5.76516 20.4853 3.51472C18.2349 1.26428 15.1826 0 12 0ZM19.5 11.7273C19.4893 11.8797 19.4698 12.0313 19.4414 12.1814C19.3465 12.756 19.1522 13.3098 18.8673 13.8177C18.7309 14.0605 18.075 14.9823 17.8746 15.225C16.7659 16.56 14.9086 18.1009 11.805 19.5995C11.7395 19.6312 11.6668 19.6448 11.5943 19.639C11.5218 19.6331 11.4522 19.6081 11.3926 19.5664C11.333 19.5248 11.2856 19.468 11.2553 19.4019C11.2249 19.3358 11.2128 19.2628 11.22 19.1905L11.3768 17.7818C11.3887 17.6741 11.3573 17.566 11.2895 17.4814C11.2218 17.3967 11.1232 17.3425 11.0155 17.3305C9.98296 17.2272 8.97718 16.9404 8.04546 16.4836C5.91819 15.4323 4.50001 13.5545 4.50001 11.415C4.50001 8.12045 7.85728 5.45455 12 5.45455C14.0809 5.45455 15.9627 6.13636 17.3182 7.21773C18.5877 8.23364 19.4005 9.61227 19.4877 11.1423C19.5023 11.3369 19.5064 11.5322 19.5 11.7273Z" fill="white"/>
<path d="M9.93278 12.735C9.96906 12.7705 9.99779 12.8129 10.0172 12.8598C10.0367 12.9067 10.0465 12.957 10.046 13.0077C10.0461 13.0582 10.0364 13.1081 10.0172 13.1548C9.99801 13.2014 9.96982 13.2438 9.93422 13.2795C9.89862 13.3153 9.85632 13.3436 9.80974 13.363C9.76316 13.3823 9.71322 13.3923 9.66279 13.3923H8.12869C8.02682 13.3919 7.92922 13.3513 7.85718 13.2792C7.78514 13.2072 7.74451 13.1096 7.74415 13.0077V10.11C7.74381 10.0593 7.75365 10.009 7.77309 9.96215C7.79254 9.9153 7.82118 9.87284 7.85733 9.83726C7.911 9.78342 7.97948 9.74676 8.05405 9.73195C8.12861 9.71714 8.2059 9.72484 8.27608 9.75408C8.34625 9.78332 8.40615 9.83278 8.44814 9.89616C8.49012 9.95953 8.51231 10.034 8.51188 10.11V12.6232H9.66279C9.71298 12.6228 9.76275 12.6325 9.80913 12.6517C9.85551 12.6709 9.89756 12.6992 9.93278 12.735Z" fill="white"/>
<path d="M11.1819 10.0268V13.0909C11.1815 13.1704 11.1498 13.2465 11.0936 13.3026C11.0374 13.3588 10.9613 13.3906 10.8819 13.3909H10.71C10.6305 13.3909 10.5542 13.3593 10.4979 13.303C10.4416 13.2468 10.41 13.1705 10.41 13.0909V10.0268C10.41 9.94725 10.4416 9.87095 10.4979 9.81469C10.5542 9.75843 10.6305 9.72682 10.71 9.72682H10.8778C10.9175 9.72646 10.9568 9.73394 10.9936 9.74884C11.0304 9.76374 11.0639 9.78576 11.0921 9.81364C11.1204 9.84151 11.1429 9.87469 11.1583 9.91128C11.1737 9.94786 11.1817 9.98713 11.1819 10.0268Z" fill="white"/>
<path d="M14.7437 10.11V12.9914C14.7437 13.095 14.7035 13.1947 14.6315 13.2692C14.5595 13.3438 14.4614 13.3874 14.3578 13.3909C14.2607 13.3894 14.1677 13.3514 14.0973 13.2846C14.0837 13.2737 13.5682 12.6028 13.1305 12.0382C12.8032 11.6169 12.5196 11.2487 12.5196 11.2487V13.0064C12.5198 13.0809 12.4984 13.1539 12.4578 13.2164C12.4173 13.2788 12.3594 13.3282 12.2912 13.3583C12.2231 13.3883 12.1476 13.3979 12.0741 13.3858C12.0006 13.3737 11.9322 13.3404 11.8773 13.29C11.8377 13.2542 11.8061 13.2104 11.7845 13.1615C11.7629 13.1127 11.7518 13.0598 11.7519 13.0064V10.1264C11.7506 10.0252 11.7882 9.92728 11.857 9.85295C11.9257 9.77861 12.0204 9.73348 12.1214 9.72686C12.1786 9.72592 12.2353 9.73767 12.2874 9.76125C12.3395 9.78482 12.3857 9.81965 12.4228 9.86322C12.4391 9.88231 13.2314 10.9132 13.6773 11.4996C13.8546 11.7287 13.9773 11.8896 13.9773 11.8896V10.1169C13.978 10.0155 14.0186 9.9184 14.0903 9.8467C14.162 9.77499 14.2591 9.73439 14.3605 9.73368C14.461 9.73366 14.5574 9.77309 14.6291 9.84349C14.7007 9.91388 14.7419 10.0096 14.7437 10.11Z" fill="white"/>
<path d="M16.0909 11.9413V12.6231H17.2405C17.2928 12.62 17.3452 12.6276 17.3945 12.6455C17.4438 12.6634 17.4889 12.6911 17.527 12.7271C17.5652 12.763 17.5956 12.8064 17.6164 12.8546C17.6372 12.9027 17.6479 12.9546 17.6479 13.007C17.6479 13.0594 17.6372 13.1113 17.6164 13.1594C17.5956 13.2075 17.5652 13.2509 17.527 13.2869C17.4889 13.3228 17.4438 13.3506 17.3945 13.3685C17.3452 13.3864 17.2928 13.394 17.2405 13.3908H15.7023C15.6005 13.3905 15.5031 13.3498 15.4312 13.2777C15.3594 13.2057 15.3191 13.1081 15.3191 13.0063V10.1099C15.3195 10.0084 15.3599 9.91117 15.4317 9.83938C15.5035 9.7676 15.6008 9.72712 15.7023 9.72676H17.2364C17.2887 9.72364 17.3411 9.73125 17.3904 9.74913C17.4397 9.76701 17.4848 9.79478 17.523 9.83073C17.5611 9.86668 17.5915 9.91005 17.6123 9.95819C17.6331 10.0063 17.6438 10.0582 17.6438 10.1106C17.6438 10.163 17.6331 10.2149 17.6123 10.2631C17.5915 10.3112 17.5611 10.3546 17.523 10.3905C17.4848 10.4265 17.4397 10.4542 17.3904 10.4721C17.3411 10.49 17.2887 10.4976 17.2364 10.4945H16.0909V11.1763H17.2405C17.3421 11.1763 17.4395 11.2167 17.5114 11.2885C17.5833 11.3604 17.6236 11.4579 17.6236 11.5595C17.6236 11.6611 17.5833 11.7586 17.5114 11.8304C17.4395 11.9023 17.3421 11.9427 17.2405 11.9427L16.0909 11.9413Z" fill="white"/>
</g>
<defs>
<clipPath id="clip0_113_2343">
<rect width="24" height="24" fill="white"/>
</clipPath>
</defs>
</svg>
