<svg width="24" height="24" viewBox="0 0 24 24" fill="none" xmlns="http://www.w3.org/2000/svg">
<g clip-path="url(#clip0_69_303)">
<path d="M12 0.5C5.385 0.5 0 4.898 0 10.303C0 15.144 4.27 19.2 10.035 19.971C10.426 20.054 10.958 20.231 11.093 20.565C11.213 20.868 11.172 21.336 11.131 21.652L10.967 22.678C10.922 22.981 10.727 23.871 12.016 23.327C13.307 22.785 18.932 19.223 21.452 16.308C23.176 14.408 24 12.461 24 10.303C24 4.898 18.615 0.5 12 0.5ZM7.303 13.517H4.917C4.572 13.517 4.287 13.23 4.287 12.884V8.083C4.287 7.736 4.572 7.449 4.917 7.449C5.265 7.449 5.547 7.736 5.547 8.083V12.25H7.303C7.651 12.25 7.932 12.535 7.932 12.884C7.932 13.23 7.65 13.517 7.303 13.517ZM9.769 12.884C9.769 13.23 9.487 13.517 9.138 13.517C8.793 13.517 8.511 13.23 8.511 12.884V8.083C8.511 7.736 8.793 7.449 9.141 7.449C9.487 7.449 9.769 7.736 9.769 8.083V12.884ZM15.51 12.884C15.51 13.156 15.336 13.397 15.078 13.484C15.014 13.505 14.945 13.515 14.879 13.515C14.668 13.515 14.488 13.424 14.369 13.263L11.926 9.925V12.883C11.926 13.229 11.647 13.516 11.295 13.516C10.949 13.516 10.669 13.229 10.669 12.883V8.083C10.669 7.811 10.842 7.57 11.099 7.484C11.159 7.461 11.235 7.451 11.293 7.451C11.488 7.451 11.668 7.556 11.788 7.707L14.25 11.058V8.083C14.25 7.736 14.532 7.449 14.88 7.449C15.225 7.449 15.51 7.736 15.51 8.083V12.884ZM19.365 9.849C19.714 9.849 19.995 10.136 19.995 10.484C19.995 10.831 19.714 11.118 19.365 11.118H17.61V12.25H19.365C19.714 12.25 19.995 12.535 19.995 12.884C19.995 13.23 19.714 13.517 19.365 13.517H16.979C16.634 13.517 16.352 13.23 16.352 12.884V8.083C16.352 7.736 16.634 7.449 16.982 7.449H19.368C19.714 7.449 19.995 7.736 19.995 8.083C19.995 8.434 19.714 8.717 19.365 8.717H17.61V9.849H19.365Z" fill="white"/>
</g>
<defs>
<clipPath id="clip0_69_303">
<rect width="24" height="24" fill="white"/>
</clipPath>
</defs>
</svg>
