<svg width="112" height="30" viewBox="0 0 112 30" fill="none" xmlns="http://www.w3.org/2000/svg">
<mask id="mask0_69_2322" style="mask-type:alpha" maskUnits="userSpaceOnUse" x="0" y="0" width="112" height="30">
<path d="M44.1942 14.2533V11.9368H44.6057V8.79355H43.2093C43.1293 8.79355 42.9597 8.79355 42.8493 8.38778L42.2397 5.84079H38.3458L40.0013 10.3728C40.3366 11.1558 40.7652 11.6472 41.2814 11.8416H40.1613V14.2533H32.7642V17.8099H40.1613V30.0001H44.1942V17.8099H51.4637V14.2533H44.1942ZM50.5436 26.0319C50.4293 26.0319 50.2597 26.0319 50.1892 25.6281L49.2215 19.0482H45.2991L46.7698 27.7464L46.7755 27.7693C47.1469 29.3771 48.2004 29.7143 49.0196 29.7143H50.9951V26.0319H50.5436ZM35.2369 19.0482L34.1701 25.1556C33.9853 25.83 33.8253 25.9995 33.7872 26.0319H32.3832V29.7143H34.8273C35.896 29.7143 37.2733 29.2228 37.7743 26.8644L39.2221 19.0482H35.2369ZM57.895 20.5722L56.7463 25.329C56.6472 25.6471 56.4681 25.7786 56.1309 25.7786H52.2257V29.5886H58.3217C59.7028 29.5886 60.6001 28.8609 60.9182 27.4664L62.1755 20.5722H57.895ZM57.6435 10.7938L56.4319 15.6401C56.331 15.9849 56.1328 16.1278 55.7499 16.1278H52.2257V19.9378H57.9407C59.3637 19.9378 60.2838 19.2082 60.6001 17.8176L61.9241 10.7938H57.6435ZM47.8404 5.45979L46.8764 8.96881C46.7412 9.4222 46.564 9.6508 46.3526 9.6508H44.9562V12.9522H47.526C48.2614 12.9522 49.2444 12.6207 49.7587 11.0491L51.7494 5.45979H47.8404ZM37.4943 9.6508C37.3628 9.6508 37.0904 9.6508 36.9437 9.0793L36.1074 5.84079H32.2231L34.0881 11.0491L34.0977 11.0738C34.6063 12.2359 35.2788 12.8245 36.0979 12.8245H38.9859V9.6508H37.4943ZM57.2263 0.381053L55.9214 5.89604C55.7804 6.32467 55.548 6.50754 55.1461 6.50754H52.2257V10.2852H57.2739C58.8265 10.2852 59.8114 9.50031 60.1238 8.00488L61.5411 0.381053H57.2263ZM47.8137 0.253418L47.7546 0.563934C47.6137 1.32403 47.3851 1.77742 47.145 1.77742H32.6365V5.20643H48.4157C49.4387 5.20643 50.2407 4.87305 50.8084 4.2063C51.3913 3.4824 51.7304 2.32225 51.8428 0.659184L51.8714 0.253418H47.8137Z" fill="url(#paint0_linear_69_2322)"/>
<path d="M78.8938 21.016C78.8938 22.8581 78.5128 24.1916 77.7508 25.0165C76.9888 25.8414 75.8039 26.2547 74.1942 26.2547H69.6222C68.0353 26.2547 66.8485 25.8414 66.0655 25.0165C65.3035 24.1916 64.9225 22.8581 64.9225 21.016V9.23735C64.9225 7.3533 65.2826 6.03122 66.0027 5.26922C66.7228 4.50722 67.9286 4.12622 69.6222 4.12622H74.1942C75.9087 4.12622 77.1146 4.50722 77.8137 5.26922C78.5338 6.01027 78.8938 7.33234 78.8938 9.23735V21.016ZM74.1313 22.4123V7.96861H69.6869V22.4143H74.1313V22.4123Z" fill="url(#paint1_linear_69_2322)"/>
<path d="M95.1492 21.016C95.1492 22.8581 94.7682 24.1916 94.0062 25.0165C93.2442 25.8414 92.0593 26.2547 90.4496 26.2547H85.8776C84.2907 26.2547 83.1039 25.8414 82.3209 25.0165C81.5589 24.1916 81.1779 22.8581 81.1779 21.016V9.23735C81.1779 7.3533 81.538 6.03122 82.2581 5.26922C82.9781 4.50722 84.184 4.12622 85.8776 4.12622H90.4496C92.1641 4.12622 93.3699 4.50722 94.0691 5.26922C94.7892 6.01027 95.1492 7.33234 95.1492 9.23735V21.016ZM90.3867 22.4123V7.96861H85.9423V22.4143H90.3867V22.4123Z" fill="url(#paint2_linear_69_2322)"/>
<path d="M111.403 9.65073L105.688 26.2547H100.321L107.179 7.93623H97.4333V4.12622H111.403V9.65073Z" fill="url(#paint3_linear_69_2322)"/>
<path d="M5.96836 6.63501H1.65163V12.952H5.96836V6.63501Z" fill="url(#paint4_linear_69_2322)"/>
<path d="M5.96836 0H1.65163V5.45403H5.96836V0Z" fill="url(#paint5_linear_69_2322)"/>
<path d="M19.8101 26.3177V24.9214H29.4628V21.5876H19.8101V20.6027H25.3042C27.5864 20.6027 28.0664 19.2749 28.0664 18.1586V9.52322H19.8101V8.54024H28.8589V5.23696H19.8101V3.80821H24.9232V4.59688H28.7332V0.506836H6.60465V4.59688H10.4147V3.80821H15.9068V5.23696H6.60465V8.54024H15.9068V9.52322H7.52476V20.6027H15.9068V21.5876H6.25413V24.9214H15.9068V26.3177H8.38202C7.03708 26.3177 6.23889 25.6967 5.87313 24.3632V13.8419H0V17.6823H1.93739V25.811C1.93739 25.811 1.84214 26.1234 0.331471 26.3215L0 26.3654V29.8744H0.381001C2.11455 29.8744 3.61189 29.5467 4.84061 28.9028C5.85217 29.3638 6.63894 29.5886 7.23901 29.5886H30.0019V26.3177H19.8101ZM24.0335 17.0156C24.0335 17.429 23.8945 17.429 23.7478 17.429H19.8101V16.5393H24.0335V17.0156ZM24.0335 12.7293V13.4609H19.8101V12.7293H24.0335ZM11.5558 12.7293H15.9068V13.4609H11.5558V12.7293ZM11.5558 17.429V16.5393H15.9068V17.429H11.5558Z" fill="url(#paint6_linear_69_2322)"/>
</mask>
<g mask="url(#mask0_69_2322)">
<rect y="-2.47656" width="111.443" height="35.6236" fill="url(#paint7_linear_69_2322)"/>
</g>
<defs>
<linearGradient id="paint0_linear_69_2322" x1="47.2003" y1="0.253418" x2="47.2003" y2="30.0001" gradientUnits="userSpaceOnUse">
<stop stop-color="#FFDC00"/>
<stop offset="1" stop-color="#9F6A00"/>
</linearGradient>
<linearGradient id="paint1_linear_69_2322" x1="71.9101" y1="4.12622" x2="71.9101" y2="26.2547" gradientUnits="userSpaceOnUse">
<stop stop-color="#FFDC00"/>
<stop offset="1" stop-color="#9F6A00"/>
</linearGradient>
<linearGradient id="paint2_linear_69_2322" x1="88.1636" y1="4.12622" x2="88.1636" y2="26.2547" gradientUnits="userSpaceOnUse">
<stop stop-color="#FFDC00"/>
<stop offset="1" stop-color="#9F6A00"/>
</linearGradient>
<linearGradient id="paint3_linear_69_2322" x1="104.419" y1="4.12622" x2="104.419" y2="26.2547" gradientUnits="userSpaceOnUse">
<stop stop-color="#FFDC00"/>
<stop offset="1" stop-color="#9F6A00"/>
</linearGradient>
<linearGradient id="paint4_linear_69_2322" x1="3.81" y1="6.63501" x2="3.81" y2="12.952" gradientUnits="userSpaceOnUse">
<stop stop-color="#FFDC00"/>
<stop offset="1" stop-color="#9F6A00"/>
</linearGradient>
<linearGradient id="paint5_linear_69_2322" x1="3.81" y1="0" x2="3.81" y2="5.45403" gradientUnits="userSpaceOnUse">
<stop stop-color="#FFDC00"/>
<stop offset="1" stop-color="#9F6A00"/>
</linearGradient>
<linearGradient id="paint6_linear_69_2322" x1="15" y1="0.506836" x2="15" y2="29.8744" gradientUnits="userSpaceOnUse">
<stop stop-color="#FFE544"/>
<stop offset="1" stop-color="#9F6A00"/>
</linearGradient>
<linearGradient id="paint7_linear_69_2322" x1="68.5801" y1="-2.47656" x2="68.1991" y2="33.147" gradientUnits="userSpaceOnUse">
<stop stop-color="#FFC522"/>
<stop offset="1" stop-color="#D78C00"/>
</linearGradient>
</defs>
</svg>
