<svg width="140" height="140" viewBox="0 0 140 140" fill="none" xmlns="http://www.w3.org/2000/svg">
<path d="M93.43 33.53L94.29 29.97H136.42V13.27H98.31L100.88 3H81.66L76.11 25.34C75.42 27.38 74.6 28.54 73.84 28.54H68.2V44.67H78.98C86.56 44.67 91.41 40.94 93.42 33.54L93.43 33.53Z" fill="#C73636"/>
<path d="M67.2099 99.8199V7.56995H10.7V110.31H55.0099C65.09 110.31 67.2099 104.61 67.2099 99.8199ZM49.9399 81.1999V92.8299C49.9399 93.84 49.75 94.7499 47.4399 94.7499H27.9599V81.1999H49.93H49.9399ZM49.9399 52.2299V65.0699H27.97V52.2299H49.9399ZM49.9399 23.1199V35.9599H27.97V23.1199H49.9399Z" fill="#C73636"/>
<path d="M127.5 121.58C126.82 121.58 126.04 121.37 125.46 119.78L112.56 89.34L131.31 34.25H112.04L101.56 63.46L94.25 46.24H74.88L92.65 88.59L82.16 117.81C81.38 119.55 80.51 120.44 79.56 120.44H66.43C64.51 120.44 63.26 120 62.71 119.16L57.99 111.45H38.62L48.56 129.37L48.61 129.46C51.18 133.42 54.43 135.42 58.29 135.42H70.49V135.99H87.54C93.76 135.99 98.18 132.04 100.66 124.27L103.81 114.91L108.95 127.16C110.97 133.78 114.66 137.14 119.92 137.14H137.54V121.58H127.48H127.5Z" fill="#C73636"/>
<path d="M13.7 120.02L13.68 120.08C13.24 121.14 12.65 121.58 11.64 121.58H2V137.14H17.91C22.66 137.14 26.14 134.9 27.96 130.73L37.28 111.45H18.14L13.69 120.02H13.7Z" fill="#C73636"/>
</svg>
