<svg width="140" height="140" viewBox="0 0 140 140" fill="none" xmlns="http://www.w3.org/2000/svg">
<path d="M40.1 46.81H3V65.36H40.1V117.51C40.1 118.11 40.1 118.72 38.32 118.72H3V135.99H42.17C56.62 135.99 59.65 127.73 59.65 120.79V4H40.1V46.81Z" fill="#E275BD"/>
<path d="M97.5401 118.73C95.7601 118.73 95.7601 118.11 95.7601 117.52V65.94H117.66C128.26 65.94 133.86 60.49 133.86 50.17V14.99H115.02V46.74C115.02 47.49 114.92 47.95 113.52 47.95H95.7601V4H76.0601V126.08C76.0601 130.6 78.0301 136 87.4101 136H138V118.73H97.5401Z" fill="#E275BD"/>
</svg>
