<svg width="24" height="24" viewBox="0 0 24 24" fill="none" xmlns="http://www.w3.org/2000/svg">
<path d="M15.9756 0H7.99018C6.58094 0.00159801 5.43896 1.14358 5.43756 2.55282V21.4473C5.43896 22.8566 6.58094 23.9985 7.99018 23.9999H15.9756C17.3849 23.9985 18.5269 22.8566 18.5285 21.4473V2.55282C18.5269 1.14358 17.3849 0.00159801 15.9756 0ZM11.983 21.8183C11.3804 21.8183 10.892 21.3299 10.892 20.7272C10.892 20.1248 11.3804 19.6364 11.983 19.6364C12.5855 19.6364 13.0739 20.1248 13.0739 20.7272C13.0739 21.3299 12.5855 21.8183 11.983 21.8183ZM13.6194 3.27273H10.3467C10.0454 3.27273 9.80113 3.02843 9.80113 2.72721C9.80113 2.42598 10.0454 2.18189 10.3467 2.18189H13.6194C13.9206 2.18189 14.1647 2.42598 14.1647 2.72721C14.1647 3.02843 13.9206 3.27273 13.6194 3.27273Z" fill="white"/>
</svg>
