<svg width="24" height="24" viewBox="0 0 24 24" fill="none" xmlns="http://www.w3.org/2000/svg">
<path d="M16.9568 9.76133V7.27722C16.9568 4.36846 14.7356 2 12.0001 2C9.26797 2 7.04334 4.36846 7.04334 7.27722V9.76133C5.89972 9.86309 5 10.8912 5 12.1332V15.0947C5 18.9017 7.90676 22 11.4826 22H12.5174C16.0932 22 19 18.9017 19 15.0947V12.1332C19 10.8911 18.1004 9.86306 16.9568 9.76133ZM9.18887 7.27722C9.34295 3.31145 14.6573 3.31234 14.8113 7.27722V9.751H9.18887L9.18887 7.27722ZM11.2157 16.151C10.0589 15.3475 10.6233 13.3835 12.0001 13.3966C13.3769 13.3843 13.9421 15.3466 12.7845 16.151C12.6955 16.2142 12.6395 16.3265 12.6395 16.4423V17.6739C12.6181 18.5704 11.383 18.5721 11.3608 17.6739V16.4423C11.3608 16.3265 11.3047 16.2142 11.2157 16.151Z" fill="#DE5B16"/>
</svg>
