<svg width="140" height="140" viewBox="0 0 140 140" fill="none" xmlns="http://www.w3.org/2000/svg">
<path d="M124.29 61.9301H105.17V70.9201H39.53V87.7601H105.17V115.23C105.17 118.53 104.56 120.01 103.96 120.01H90.48V104.74H72.43C71.93 104.74 71 104.74 70.63 102.44V102.36L67.29 90.4801H47.81L53.43 112.35C54.93 117.83 58.74 120.73 64.44 120.73H86.91V135.57H109.67C114.1 135.57 117.5 134.25 119.72 131.71C122.76 128.67 124.3 124.86 124.3 120.38V87.7801H136.29V70.9401H124.3V61.9501L124.29 61.9301Z" fill="#B5B5B5"/>
<path d="M26.22 36.82C27.65 36.2 29.04 34.96 29.98 32.66L43.35 3H24.23L17 18.67C16.33 20.01 15.63 20.69 14.92 20.69H3V37.39H22.65L16.92 52.67C15.82 55.86 14.27 56.22 13.2 56.22H3V72.78H13.84V136.85H31.11V63.79L42.12 36.82H26.22Z" fill="#B5B5B5"/>
<path d="M100.89 14.42V3H81.77V14.42H40.67V31.11H81.77V44.67H44.67V61.37H132.14V44.67H100.89V31.11H136.28V14.42H100.89Z" fill="#B5B5B5"/>
</svg>
