<svg width="140" height="140" viewBox="0 0 140 140" fill="none" xmlns="http://www.w3.org/2000/svg">
<path d="M35.94 116.88L32.85 112.17H9.54004L16.18 124.4C19.78 130.78 26.03 134.01 34.75 134.01H65.93V119.02H42.88C39.6 119.02 37.26 118.3 35.93 116.89L35.94 116.88Z" fill="#888888"/>
<path d="M79.27 39.96C84.94 39.96 88.76 37.78 90.59 33.58L96.3 22.45L96.35 22.35C97.1 20.56 97.94 20.56 98.25 20.56H103.8L110.93 33.21L111.01 33.33C114.34 38.11 118.49 40.54 123.37 40.54H136.29V25.55H131.22C127.98 25.55 125.94 24.69 124.93 22.83L123.51 20.56H135.15V5H88.99C85.15 5 83.57 6.77 82.92 8.29L76.1 21.36L76.05 21.46C74.86 24.25 72.8 25.54 69.58 25.54H68.08V37.95H66.51V25.96H61.73C59.69 25.96 58.49 25.2 57.84 23.48L56.67 20.54H66.51V5H25.19C21.83 5 19.65 6.09 18.71 8.25L11.62 20.44L11.57 20.54C10.31 23.14 8 24.4 4.5 24.4H3V38.82H14.49C20.3 38.82 24.3 36.82 26.35 32.92L32.38 22.3L32.41 22.23C33.16 20.55 33.9 20.55 34.18 20.55H37.93L43.52 32.66L43.58 32.78C46.33 37.54 49.69 39.95 53.58 39.95H59.64V46.51H3V61.5H59.65V68.77H7.57V84.33H128.86V68.77H79.06V61.5H135.14V46.51H79.06V39.95H79.27V39.96Z" fill="#888888"/>
<path d="M116.16 85.48H96.1799V92.76H6.56995V108.32H96.1799V119.38C96.1799 120.17 96.0399 120.31 95.2499 120.31H67.6399V134.58H104.53C114.14 134.58 116.16 130.04 116.16 126.23V108.32H132.14V92.76H116.16V85.48Z" fill="#888888"/>
</svg>
