<svg width="140" height="140" viewBox="0 0 140 140" fill="none" xmlns="http://www.w3.org/2000/svg">
<path d="M120.51 70.35C118.59 70.35 117.07 69.74 115.85 68.5L111.66 61.79H137.57V46.23H102.66C102.64 46.15 102.62 46.08 102.61 46.01V38.39H134V23.4H124.08L130.93 7.56H113.81L107.1 23.4H102.6V4H86.04V23.41H82.85L76.57 7.57H59.64L65.92 23.41H55.21V38.4H86.03V46.14C86.03 46.14 86.03 46.18 86.01 46.25H52.78V61.81H78.68L75.24 68.69C74.47 69.83 73.43 70.37 71.98 70.37H54.07V85.36H78.26C82.49 85.36 85.69 83.1 87.74 78.68L94.43 65.3L101.52 78.63C104.18 83.09 108.45 85.36 114.23 85.36H138.13V70.37H120.51V70.35Z" fill="#33AC1D"/>
<path d="M97.17 85.76H81.17L79.89 92.61H55.81V107.6H76.9L74.94 117.75V117.85C74.73 121.01 73.62 121.01 73.15 121.01H54.67V135.43H81.85C85.16 135.43 89.37 133.9 90.61 126.61L93.69 107.61H116.88V121.95C116.88 122.43 116.88 122.88 115.38 122.88H99.18V136.58H119.94C131.09 136.58 133.43 130.57 133.43 125.52V92.63H96.03L97.17 85.78V85.76Z" fill="#33AC1D"/>
<path d="M8.28 119.23C8.28 121.01 7.8 121.01 7.64 121.01H2V136.57H9.78C19.35 136.57 24.41 131.51 24.41 121.94V97.7599H36.39V119.8C36.39 120.55 36.29 121.01 34.89 121.01H27.11V136.57H39.03C47.48 136.57 51.95 132.15 51.95 123.8V7.56995H8.28V119.23ZM24.41 45.2399V24.2699H36.39V45.2399H24.41ZM24.41 81.1999V61.7999H36.39V81.1999H24.41Z" fill="#33AC1D"/>
</svg>
