<svg width="140" height="140" viewBox="0 0 140 140" fill="none" xmlns="http://www.w3.org/2000/svg">
<path d="M77.7601 111.15L71.2901 68.78H53.8101L62.8201 121.82C64.4401 129.53 69.0901 131.14 72.7101 131.14H86.7701V113.73H79.5601C79.1401 113.73 78.1401 113.73 77.7601 111.15Z" fill="#A6CB5A"/>
<path d="M82.2 41.24H53.8V27.26H61.86C65.78 27.26 69.25 25.77 72.18 22.85C74.86 20.27 77.56 14.41 80.42 4.94001L81 3.01001H61.43L61.04 3.93001C59.21 8.25001 56.99 10.43 54.43 10.43H9.14V27.27H35.82V41.25H6.14V58.66H35.82V68.79H19.63L13.45 107.34C12.04 113.56 10.65 113.73 10.63 113.73H5V131.71H15.2C22.66 131.71 27.43 126.06 29.38 114.88L35.81 72.3V137.99H53.79V58.65H82.19V41.24H82.2Z" fill="#A6CB5A"/>
<path d="M107.45 14.5601H89.04V107.17H107.45V14.5601Z" fill="#A6CB5A"/>
<path d="M117.01 4.14001V117.08C117.01 117.83 116.91 118.29 115.51 118.29H95.17V134.99H119.64C133.03 134.99 135.84 127.04 135.84 120.36V4.14001H117H117.01Z" fill="#A6CB5A"/>
</svg>
